<?xml version="1.0" encoding="iso-8859-1"?>
<!-- Uploaded to: SVG Repo, www.svgrepo.com, Generator: SVG Repo Mixer Tools -->
<svg fill="#000000" height="800px" width="800px" version="1.1" id="Layer_1" xmlns="http://www.w3.org/2000/svg" xmlns:xlink="http://www.w3.org/1999/xlink" 
	 viewBox="0 0 512 512" xml:space="preserve">
<g transform="translate(0 -1)">
	<g>
		<g>
			<path d="M137.829,359.049c0.136,0.035,0.279,0.055,0.411,0.099C138.057,359.102,137.927,359.071,137.829,359.049z"/>
			<path d="M512,323.308c-1.707-9.387-7.68-17.067-16.213-23.04c-5.12-4.267-11.093-6.827-14.507-8.533
				c-0.853-0.853-2.56-0.853-3.413-0.853c-1.707,0-4.267,0-7.68,0c-6.827,0-13.653-0.853-21.333-1.707
				c-22.187-1.707-44.373-5.12-64.853-9.387c-37.547-8.533-64.853-20.48-79.36-36.693c-1.707-1.707-2.56-3.413-4.267-5.12
				c-5.509-6.01-11.093-11.566-16.728-16.695c-0.112-0.125-0.218-0.252-0.339-0.372c-0.337-0.337-0.695-0.632-1.063-0.902
				c-6.435-5.764-12.935-10.945-19.468-15.562c0.301-0.201,0.602-0.401,0.903-0.602c9.387-5.973,17.92-8.533,25.6-6.827
				c4.267,0.853,7.68,2.56,11.947,6.827c17.92,17.067,34.133,14.507,43.52-1.707c2.56-4.267,4.267-8.533,5.12-11.093
				c0.853-4.267-1.707-9.387-5.973-10.24c-4.267-0.853-9.387,1.707-10.24,5.973c0,1.707-1.707,4.267-2.56,6.827
				c-4.267,6.827-7.68,7.68-17.067-1.707c-6.827-6.827-13.653-10.24-21.333-11.947c-12.8-2.56-25.6,1.707-38.4,9.387
				c-2.669,1.525-4.979,3.218-6.966,4.856c-0.356-0.821-0.867-1.596-1.567-2.296c0,0-0.853-0.853-1.707-2.56
				c-1.707-1.707-3.413-4.267-4.267-6.827c-2.56-3.413-4.267-7.68-5.12-10.24c-2.56-7.68-0.853-10.24,7.68-11.093
				c17.92-2.56,27.307-11.093,28.16-23.893c0-5.12-1.707-10.24-4.267-15.36c-1.707-2.56-2.56-5.12-4.267-5.973
				c-2.56-3.413-8.533-4.267-11.947-1.707s-4.267,8.533-1.707,11.947c0.853,0.853,1.707,1.707,2.56,3.413
				c1.707,2.56,2.56,5.12,2.56,7.68c0,3.413-2.56,5.973-12.8,7.68c-20.48,2.56-27.307,16.213-22.187,33.28
				c0.359,1.077,0.722,2.112,1.097,3.13c-1.664-0.57-3.177-1.042-4.51-1.423c-2.56-0.853-5.973,0-7.68,2.56l-17.067,17.067
				c-58.027,56.32-104.96,59.733-141.653,33.28c-5.12-3.413-8.533-6.827-11.947-11.093c-1.707-1.707-3.413-3.413-4.267-4.267
				c-3.413-5.12-11.093-4.267-13.653,0c-15.36,23.893-20.48,51.2-17.92,79.36c0.853,10.24,2.56,19.627,5.12,28.16
				c0.033,0.1,0.065,0.198,0.097,0.298C2.351,326.238,0,329.303,0,333.548v42.667c0,5.12,3.413,8.533,8.533,8.533H128
				c2.56,0,4.267-0.853,5.973-2.56l5.12-5.12c3.413,0.853,7.68,2.56,11.093,2.56c11.947,3.413,25.6,5.973,40.96,8.533
				c60.587,11.093,122.027,16.213,179.2,11.093c52.907-5.12,99.84-18.773,137.387-41.813c2.56-1.707,4.267-4.267,4.267-6.827v-25.6
				c0-0.492-0.05-0.966-0.126-1.429L512,323.308z M469.333,307.095c2.56,0,4.267,0,5.973,0c0.853,0,1.707,0.853,2.56,0.853
				c2.56,1.707,5.12,3.413,7.68,5.12c3.413,2.56,5.12,5.12,6.827,6.827c-0.35,0.7-0.703,1.107-1.112,1.409
				c-0.729,0.365-1.485,0.743-2.301,1.151c-8.533,4.267-19.627,7.68-32.427,11.093c-45.825,12.951-101.556,19.487-168.001,16.59
				c15.004-13.541,50.089-21.478,95.468-24.27c16.633-0.792,31.784-9.679,40.017-23.233c7.741,0.987,15.486,1.871,23.129,2.753
				C454.827,306.241,462.507,306.241,469.333,307.095z M302.933,266.988c22.187,17.92,57.173,28.16,99.84,34.987
				c-6.827,5.12-13.653,7.68-21.333,7.68c-58.027,3.413-99.84,15.36-113.493,39.253c-34.987-2.56-73.387-7.68-112.64-15.36
				c8.533-18.773,46.933-29.013,102.4-32.427C279.04,299.415,299.52,264.428,302.933,266.988z M27.307,236.268
				c3.413,3.413,6.827,5.973,11.093,9.387c43.52,31.573,99.84,27.307,163.84-34.987l13.653-13.653c0.853,0,0.853,0,1.707,0.853
				c5.12,1.707,11.093,4.267,17.067,7.68c0.184,0.096,0.37,0.202,0.554,0.299l-10.794,10.794c-3.413,3.413-3.413,8.533,0,11.947
				c3.413,3.413,8.533,3.413,11.947,0l13.769-13.769c5.215,3.506,10.438,7.406,15.613,11.693l-15.729,15.729
				c-3.413,3.413-3.413,8.533,0,11.947s8.533,3.413,11.947,0l16.377-16.377c3.41,3.306,6.776,6.772,10.077,10.403
				c0.527,0.527,0.969,0.969,1.383,1.383c-0.808,1.072-1.383,2.261-1.383,3.737c-1.707,17.067-15.36,29.013-32.427,29.867
				c-64.597,3.891-109.312,17.014-117.326,47.13c-2.981-0.626-5.956-1.246-8.967-1.903c-12.8-2.56-25.6-4.267-38.4-4.267H23.04
				c0-0.853-0.853-2.56-0.853-4.267c-1.707-7.68-3.413-16.213-4.267-24.747C16.213,273.815,18.773,254.188,27.307,236.268z
				 M368.64,382.188c-55.467,5.12-116.053,0.853-174.933-10.24c-14.507-2.56-28.16-5.973-40.107-8.533
				c-6.461-1.615-17.5-4.757-15.771-4.366c-2.507-0.643-5.694,0.231-8.122,2.659l-5.12,5.973H17.067v-25.6h74.24
				c11.947,0,23.893,0.853,34.987,3.413c143.36,30.72,254.293,28.16,335.36,5.12c7.147-1.906,13.743-4.082,19.826-6.372
				c4.86-1.673,9.322-3.36,13.454-5.196v6.448C459.947,365.975,417.28,377.921,368.64,382.188z"/>
		</g>
	</g>
</g>
</svg>